# xmcd
#
# Track frame offsets:
#	150
#	13810
#	25657
#	38082
#	50452
#	65802
#	79835
#	93932
#	105875
#	124445
#	136967
#	156217
#	171017
#	184032
#	195820
#	211840
#	225912
#	239085
#	250320
#	264245
#	280077
#	294572
#	310197
#	322410
#
# Disc length: 4496 seconds
#
# Revision: 1
# Processed by: cddbd v1.5.1PL0 Copyright (c) Steve Scherf et al.
# Submitted via: CDex 1.50Beta5
#
DISCID=4b118e18
DTITLE=Various Artist - フォークポップスグラフィティ12
DYEAR=1994
DGENRE=Pop
TTITLE0=ザ・ワイルドワンズ/想い出の渚
TTITLE1=ザ・ランチャーズ/真冬の帰り道
TTITLE2=市川染五郎/野バラ咲く路
TTITLE3=ザ・ゴールデンカップス/長い髪の少女
TTITLE4=ザ・フォーク・クルセダーズ/帰って来たヨッパライ
TTITLE5=ザ・フォーク・クルセダーズ/青年は荒野をめざす
TTITLE6=ザ・フォーク・クルセダーズ/悲しくてやりきれない
TTITLE7=キャッスル＆ゲイツ/おはなし
TTITLE8=フォー・セインツ/希望
TTITLE9=ザ・リガニーズ/海は恋してる
TTITLE10=ジャックス/時計をとめて
TTITLE11=万里村れいとタイムセラーズ/今日も夢見る
TTITLE12=ザ・ズートルビー/水虫の唄
TTITLE13=モダン・フォーク・フェローズ/さよならは云わないで
TTITLE14=はしだのりひことシューベルツ/風
TTITLE15=トワ・エ・モア/或る日突然
TTITLE16=はしだのりひことクライマックス/花嫁
TTITLE17=トワ・エ・モア/空よ
TTITLE18=ジローズ/戦争を知らない子供たち
TTITLE19=浅川マキ/夜が明けたら
TTITLE20=加藤和彦北山修/あの素晴らしい愛をもう一度
TTITLE21=モップス/たどりついたらいつも雨降り
TTITLE22=RCサクセション/僕の好きな先生
TTITLE23=オフコース/眠れぬ夜
EXTD=
EXTT0=
EXTT1=
EXTT2=
EXTT3=
EXTT4=
EXTT5=
EXTT6=
EXTT7=
EXTT8=
EXTT9=
EXTT10=
EXTT11=
EXTT12=
EXTT13=
EXTT14=
EXTT15=
EXTT16=
EXTT17=
EXTT18=
EXTT19=
EXTT20=
EXTT21=
EXTT22=
EXTT23=
PLAYORDER=
